<svg xmlns="http://www.w3.org/2000/svg" width="193" height="28.557" viewBox="0 0 193 28.557">
  <g id="Group_938" data-name="Group 938" opacity="0.488">
    <g id="Group_56" data-name="Group 56">
      <g id="Group_55" data-name="Group 55">
        <path id="Path_34" data-name="Path 34" d="M209.4,45.868a14.469,14.469,0,0,0-3.691-6.417h0a14.326,14.326,0,0,0-20.214,0h0L180.444,44.5l-5.055-5.053a14.326,14.326,0,0,0-20.214,0h0a14.294,14.294,0,0,0,20.214,20.215h0l5.055-5.053,5.053,5.053h0l5.053-5.053L185.5,49.557l5.053-5.053h0a7.116,7.116,0,0,1,10.107,0h0a7.118,7.118,0,0,1,0,10.108h0l5.053,5.053a14.324,14.324,0,0,0,3.691-13.8Zm-39.146,8.824h0a7.116,7.116,0,0,1-10.107,0h0a7.116,7.116,0,0,1,0-10.107h0a7.116,7.116,0,0,1,10.107,0l5.053,5.053Z" transform="translate(-151.004 -35.28)" fill="#fff"/>
      </g>
    </g>
    <g id="Group_58" data-name="Group 58" transform="translate(73.237 4.011)">
      <path id="Path_35" data-name="Path 35" d="M253.645,42.083h-.722v2.888h.722a2.876,2.876,0,0,1,2.889,2.888h-6.5a2.876,2.876,0,0,1,2.888-2.888V42.083a5.751,5.751,0,0,0-5.775,5.775h0v2.888h0a5.751,5.751,0,0,0,5.775,5.775h5.7V53.713h-5.7a2.876,2.876,0,0,1-2.888-2.888h9.386V47.938h0A5.821,5.821,0,0,0,253.645,42.083Z" transform="translate(-183.216 -36.388)" fill="#fff"/>
      <path id="Path_36" data-name="Path 36" d="M287.064,50.8h2.888V47.914h0a5.752,5.752,0,0,0-5.777-5.775h-.722v2.888h.722a2.877,2.877,0,0,1,2.889,2.888h-6.5a2.877,2.877,0,0,1,2.888-2.888V42.139a5.751,5.751,0,0,0-5.775,5.775h0V50.8h0a5.751,5.751,0,0,0,5.775,5.775h5.7V53.69h-5.7a2.876,2.876,0,0,1-2.888-2.888Z" transform="translate(-170.189 -36.364)" fill="#fff"/>
      <path id="Path_37" data-name="Path 37" d="M231.7,42.42h-2.888v8.663a2.876,2.876,0,0,1-2.888,2.888h-.722a2.875,2.875,0,0,1-2.888-2.888V42.42H219.43v8.663h0a5.751,5.751,0,0,0,5.775,5.775h.722a5.751,5.751,0,0,0,5.775-5.775h0V42.42Z" transform="translate(-195.043 -36.244)" fill="#fff"/>
      <path id="Path_38" data-name="Path 38" d="M246.348,44.171h-4.331a5.751,5.751,0,0,0-5.775,5.775v2.888a5.751,5.751,0,0,0,5.775,5.775h1.444a5.751,5.751,0,0,0,5.775-5.775V38.316h-2.888Zm0,8.663a2.876,2.876,0,0,1-2.888,2.888h-1.444a2.875,2.875,0,0,1-2.888-2.888h0V49.946h0a2.876,2.876,0,0,1,2.888-2.888h4.331v5.775Z" transform="translate(-187.87 -37.995)" fill="#fff"/>
      <g id="Group_57" data-name="Group 57" transform="translate(92.168 0.641)">
        <rect id="Rectangle_76" data-name="Rectangle 76" width="2.888" height="14.519" transform="translate(0 5.134)" fill="#fff"/>
        <rect id="Rectangle_77" data-name="Rectangle 77" width="2.888" height="2.888" fill="#fff"/>
      </g>
      <path id="Path_39" data-name="Path 39" d="M235.494,42.083a5.751,5.751,0,0,0-5.775,5.775h0v8.663h2.888V47.858h0a2.875,2.875,0,0,1,2.888-2.888h1.444V42.083Z" transform="translate(-190.653 -36.388)" fill="#fff"/>
      <path id="Path_40" data-name="Path 40" d="M276.931,42.083a5.751,5.751,0,0,0-5.775,5.775h0v8.663h2.888V47.858h0a2.876,2.876,0,0,1,2.888-2.888h1.525V42.083Z" transform="translate(-172.972 -36.388)" fill="#fff"/>
      <path id="Path_41" data-name="Path 41" d="M215.957,42.083h-2.166a5.751,5.751,0,0,0-5.775,5.775v2.888a5.751,5.751,0,0,0,5.775,5.775h2.166a5.751,5.751,0,0,0,5.775-5.775h-2.888a2.876,2.876,0,0,1-2.888,2.888h-2.166a2.876,2.876,0,0,1-2.888-2.888h0V47.858h0a2.876,2.876,0,0,1,2.888-2.888h2.166a2.875,2.875,0,0,1,2.888,2.888h0v2.888h2.888V47.858h0A5.751,5.751,0,0,0,215.957,42.083Z" transform="translate(-199.914 -36.388)" fill="#fff"/>
      <path id="Path_42" data-name="Path 42" d="M202.337,43.866v14.52h2.888V46.754h3.61V43.866h-3.61a2.876,2.876,0,0,1,2.888-2.888H210.2V38.091h-2.086A5.751,5.751,0,0,0,202.337,43.866Z" transform="translate(-202.337 -38.091)" fill="#fff"/>
      <path id="Path_43" data-name="Path 43" d="M268.234,49.438a2.937,2.937,0,0,0-2.567-1.524h-5.454v-.642a2.175,2.175,0,0,1,1.2-2,2.213,2.213,0,0,1,1.043-.241h4.974V42.139h-4.974a5.186,5.186,0,0,0-5.133,5.213v.562a2.764,2.764,0,0,0,.4,1.444,2.831,2.831,0,0,0,2.487,1.444h5.536v.642a2.27,2.27,0,0,1-1.2,2.006,2.619,2.619,0,0,1-1.123.32h-5.936v2.889h5.936a5.241,5.241,0,0,0,5.215-5.135v-.8A3.04,3.04,0,0,0,268.234,49.438Z" transform="translate(-178.873 -36.364)" fill="#fff"/>
    </g>
  </g>
</svg>
